<svg width="200" height="96" viewBox="0 0 200 96" fill="none" xmlns="http://www.w3.org/2000/svg">
<path fill-rule="evenodd" clip-rule="evenodd" d="M175.885 33.6479C189.718 33.6479 194.952 40.7513 197.569 52.715C200.186 64.5852 202.616 82.0634 193.924 90.3819C196.634 78.6986 192.522 74.5861 177.848 77.8574C193.176 65.9872 194.578 58.6968 188.97 49.0698C187.356 46.2936 179.454 51.1437 171.825 55.8259C168.41 57.922 165.049 59.9844 162.332 61.3139C156.35 64.2113 149.434 63.5571 149.434 63.5571C154.059 58.5623 160.469 53.3615 165.765 49.0644C171.172 44.6773 175.418 41.2322 175.418 39.9101C175.418 38.7885 173.361 34.0217 170.183 28.4138C167.099 31.2177 126.441 32.4328 101.018 32.4328H100.084H99.1491C73.6328 32.4328 32.9749 31.2177 29.984 28.4138C26.8061 33.9283 24.7499 38.7885 24.7499 39.9101C24.7499 41.317 29.2066 44.9396 34.8136 49.4972C40.0095 53.7206 46.1931 58.747 50.7335 63.5571C50.7335 63.5571 43.817 64.2113 37.8352 61.3139C35.0423 59.9615 31.6021 57.8509 28.1254 55.7179C20.5488 51.0696 12.799 46.3149 11.1973 49.0698C5.58929 58.6034 6.99128 65.8938 22.3198 77.764C7.73901 74.4927 3.53303 78.6052 6.24355 90.2885C-2.63575 82.0634 -0.205624 64.5852 2.41143 52.715C5.02849 40.7513 10.2626 33.6479 24.0956 33.6479C24.0956 33.6479 24.0956 31.7785 11.5711 27.9464C-0.953353 24.1143 -0.299089 17.7586 11.5711 17.7586C19.9901 17.7586 19.946 20.2035 19.909 22.2588C19.8938 23.1013 19.8798 23.8784 20.4504 24.3947C22.3198 26.1706 27.7408 27.1987 27.7408 27.1987C27.7408 27.1987 36.5266 9.81396 44.3778 6.26224C52.3225 2.71052 73.6328 0 99.0556 0H99.9903H100.925C126.441 0 147.752 2.71052 155.603 6.26224C163.454 9.81396 172.24 27.1987 172.24 27.1987C172.24 27.1987 177.567 26.1706 179.53 24.3947C180.065 23.8862 180.041 23.1249 180.015 22.2972C179.95 20.2341 179.871 17.7586 188.409 17.7586C200.373 17.7586 200.934 24.1143 188.409 27.9464C175.885 31.7785 175.885 33.6479 175.885 33.6479ZM99.9903 29.9092C115.412 29.9092 147.471 29.1615 161.491 26.6379C164.856 26.0771 166.071 21.7776 164.015 19.0671C160.556 14.4873 156.724 10.4682 153.079 8.97276C142.704 4.76678 119.805 2.99092 100.925 2.71052H99.9903H99.0556C80.1754 2.99092 57.2762 4.67331 46.9014 8.97276C43.2562 10.4682 39.4241 14.3938 35.9658 19.0671C33.9096 21.7776 35.1246 26.0771 38.4894 26.6379C52.4159 29.1615 84.4749 30.0027 99.9903 29.9092ZM99.9904 60.4727C108.776 60.3792 128.03 59.4446 131.021 57.2949C134.012 55.0517 142.05 37.1061 142.05 37.1061C142.05 37.1061 133.358 50.6587 130.928 53.8366C128.498 57.0145 109.337 57.1079 100.084 57.1079C90.8307 57.1079 71.6701 56.921 69.24 53.8366C66.8098 50.6587 58.1175 37.1061 58.1175 37.1061C58.1175 37.1061 66.1556 55.0517 69.1465 57.2949C71.9505 59.4446 91.2045 60.5662 99.9904 60.4727ZM99.0556 70.0997C118.216 70.0997 132.89 67.95 140.087 64.3983C129.619 67.2957 99.0556 66.9219 99.0556 66.9219C99.0556 66.9219 68.4921 67.2957 58.0238 64.3983C65.2207 67.95 79.895 70.0997 99.0556 70.0997ZM142.05 75.7077C147.191 84.2132 143.172 90.1015 129.432 91.0362C116.347 91.8774 102.233 91.9709 100.738 91.9709C98.9622 91.9709 81.7644 91.8774 68.7725 91.0362C54.9395 90.1015 50.9205 84.2132 56.1546 75.7077C44.9386 81.783 34.2835 81.5961 27.7408 78.5117C29.4232 82.0634 38.9568 88.793 47.9295 92.0643C56.7154 95.2422 76.8106 95.5226 100.645 95.5226H100.738H100.925C124.852 95.5226 141.583 95.2422 150.275 92.0643C159.248 88.793 168.781 82.0634 170.464 78.5117C163.828 81.5026 153.266 81.783 142.05 75.7077ZM99.0556 78.0444C96.3451 78.0444 94.1954 75.8946 94.1954 74.96C94.1954 74.0253 96.3451 73.2776 99.0556 73.2776C101.766 73.2776 103.916 74.0253 103.916 74.96C103.916 75.8946 101.766 78.0444 99.0556 78.0444Z" fill="white"/>
</svg>
